<?xml version="1.0" encoding="iso-8859-1"?>
<!-- Uploaded to: SVG Repo, www.svgrepo.com, Generator: SVG Repo Mixer Tools -->
<svg height="800px" width="800px" version="1.1" id="Layer_1" xmlns="http://www.w3.org/2000/svg" xmlns:xlink="http://www.w3.org/1999/xlink" 
	 viewBox="0 0 512 512" xml:space="preserve">
<circle style="fill:#FFEDB5;" cx="256" cy="256" r="256"/>
<path style="fill:#FEE187;" d="M497.488,341.121L334.529,178.162l-73.302,18.13l-12.409-12.409l0,0l-4.024-4.024l-145.67,75.461
	l156.931,157.88l0,0l84.585,84.454C413.772,472.043,471.733,414.184,497.488,341.121z"/>
<polygon style="fill:#F0881C;" points="99.125,255.321 211.075,255.321 242.831,242.721 256.326,210.989 256.326,176.702 
	178.49,176.704 "/>
<polygon style="fill:#FFBB1B;" points="178.49,176.704 99.125,255.321 211.075,255.321 242.831,242.721 "/>
<polygon style="fill:#7E3794;" points="256.326,98.799 256.326,210.989 268.512,242.505 301.266,256 334.529,256 334.529,178.162 
	"/>
<polygon style="fill:#DD4B39;" points="334.529,178.162 256.326,98.799 256.326,210.989 268.512,242.505 "/>
<polygon style="fill:#43459D;" points="411.953,256 301.266,256 269.169,268.359 256.055,300.477 256.055,334.376 333.51,334.376 
	"/>
<polygon style="fill:#427FED;" points="333.51,334.376 411.953,256 301.266,256 269.169,268.359 "/>
<polygon style="fill:#1A8763;" points="256.055,413.201 256.055,300.477 243.488,268.574 211.075,255.321 177.471,255.321 
	176.845,333.54 "/>
<polygon style="fill:#65B045;" points="176.845,333.54 256.055,413.201 256.055,300.477 243.488,268.574 "/>
</svg>